# xmcd
#
# Track frame offsets:
#	150
#	14032
#	27085
#	45851
#	58291
#	75059
#	88608
#	107271
#	119100
#	140041
#	158614
#	179216
#	193122
#	223553
#	246543
#	264666
#
# Disc length: 3877 seconds
#
# Revision: 0
# Processed by: cddbd v1.5.2PL0 Copyright (c) Steve Scherf et al.
# Submitted via: EasyCDDAExtractor 16.0.6.1
#
DISCID=e20f2310
DTITLE=Κάβουρας Στάθης-ΚωνσταντίνουΓ.-ΚωστόπουλοςΤ.-ΠαπαδόπουλοςΓ. - Τα δημοτι
DTITLE=κά της παρέας
DYEAR=1900
DGENRE=Παραδοσιακή
TTITLE0=Σαράντα παλληκάρια
TTITLE1=Έχε γεια καημένε κόσμε
TTITLE2=Ένας αετός καθότανε
TTITLE3=Αρκαδιανή
TTITLE4=Λάμπουν τα χιόνια
TTITLE5=Τρία παιδιά Βολιώτικα
TTITLE6=Πάνω σε τρίκορφο βουνό
TTITLE7=Βλέπεις εκείνο το βουνό
TTITLE8=Παιδιά της Σαμαρίνας
TTITLE9=Κάτω στου βάλτου
TTITLE10=Γιάννη μου το μαντήλι σου
TTITLE11=Σήκω Δημήτρω κι άλλαξε
TTITLE12=Θεωνίτσα [κλέφτικο]
TTITLE13=Τρεις στρατηγοί ξεκίνησαν [Α. Χαλκιά-Φ. Χαλκιόπουλου, κλέφτικο]
TTITLE14=Σιγά Λιάκο μ' μη βιάζεσαι [κλέφτικο]
TTITLE15=Θρήνος μεγάλος έγινε [κλέφτικο]
EXTD=
EXTT0=
EXTT1=
EXTT2=
EXTT3=
EXTT4=
EXTT5=
EXTT6=
EXTT7=
EXTT8=
EXTT9=
EXTT10=
EXTT11=
EXTT12=
EXTT13=
EXTT14=
EXTT15=
PLAYORDER=
